<svg width="50" height="56" viewBox="0 0 50 56" fill="none" xmlns="http://www.w3.org/2000/svg">
<path d="M44.2672 27.3327L44.2583 34.9448L24.7413 49.5912L24.7633 55.8158L49.5548 37.7369V27.2788L44.2672 27.3327Z" fill="#FFCE00"/>
<path d="M31.7181 5.54056H44.3305L44.2895 18.8204H49.572V0H31.7181V5.54056Z" fill="#FFCE00"/>
<path d="M17.8538 5.54056H5.24154L5.28245 18.8204H0V0H17.8538V5.54056Z" fill="#FFCE00"/>
<path d="M6.17213 24.0134C6.17213 23.7588 5.97742 23.5468 5.74376 23.5468H2.12258C1.88892 23.5468 1.69421 23.7588 1.69421 24.0134C1.69421 24.2678 1.88892 24.4799 2.12258 24.4799H5.74376C5.97742 24.4799 6.17213 24.2678 6.17213 24.0134V24.0134ZM42.1116 37.4167C41.8001 38.3923 40.7487 39.1981 39.7753 39.1557C38.8408 39.1557 38.3346 38.3074 38.685 37.2894C38.9965 36.3139 40.0479 35.508 41.0213 35.5504C41.9558 35.5929 42.462 36.3987 42.1116 37.4167ZM48.3026 34.49C48.3026 31.0968 45.7717 28.3397 42.6567 28.3397C42.5398 28.3397 42.423 28.3397 42.2672 28.3822L39.4248 21.5956C39.308 21.3836 39.2301 21.2563 39.1134 21.0866C38.9576 20.7897 38.6461 20.5776 38.2957 20.5776H38.062C37.9842 20.5776 37.8673 20.5776 37.7894 20.5776H36.232L36.0762 19.39C36.0762 18.6266 35.5311 18.0326 34.8302 18.0326H31.0922C31.8709 16.7602 32.5328 15.8271 32.7664 15.7422C32.8054 15.7422 32.8054 15.7422 32.8443 15.7422C34.8302 15.7422 36.5434 14.2153 37.0107 12.1793H38.2568C38.1399 11.2037 37.6727 10.3979 37.0107 9.80405C36.5046 7.81051 34.8302 6.32597 32.8443 6.32597C30.4691 6.32597 28.5223 8.44678 28.5223 11.0342C28.5223 12.4763 29.1063 13.7488 30.0408 14.5971C24.4726 14.7244 21.3577 17.3118 20.4621 18.2449C20.1117 18.457 19.8781 18.9235 19.8781 19.3902V19.475C19.8781 20.2386 20.4232 20.8747 21.1242 20.8747H22.409C21.0851 22.6985 20.1895 24.4801 19.6445 25.6253H18.087C18.1259 25.5405 18.1649 25.4556 18.2038 25.3283L19.7614 15.4455C19.8392 14.9365 19.4888 14.5122 18.9826 14.5122L10.3773 14.4698C9.8712 14.4698 9.40389 14.8515 9.326 15.3605L7.76841 25.2435C7.72947 25.3708 7.72947 25.4979 7.76841 25.6252H5.3154C5.00385 25.6252 4.73138 25.8796 4.73138 26.2615V26.3039C4.73138 26.6433 5.00398 26.9402 5.3154 26.9402H10.6499H35.3754C31.4037 23.4621 27.432 24.2679 27.432 24.2679C27.432 24.2679 28.2886 22.6985 29.34 20.9171H31.1311C30.9753 21.0867 30.8974 21.3413 30.8974 21.5534C30.8974 22.1048 31.2869 22.5714 31.793 22.5714H36.3097C36.3487 22.741 36.3875 22.9107 36.4655 23.0804L38.2956 27.4067L37.5947 28.1701H31.3258C31.1311 28.1701 30.9364 28.3397 30.9364 28.5943C30.9364 28.8064 31.1311 29.0184 31.3258 29.0184H37.0886C37.2054 29.0608 37.3222 29.1881 37.3222 29.3577V29.4001C37.3222 29.485 37.2833 29.5698 37.2054 29.6547H26.5754C26.264 29.6547 26.0303 29.9091 26.0303 30.2485C26.0303 30.5455 26.264 30.8 26.5754 30.8H35.1417V30.8424H35.1806C35.3754 30.8424 35.531 31.0544 35.531 31.2665V31.3089C35.531 31.521 35.3752 31.6907 35.1806 31.6907H34.8691C34.8302 31.6907 34.7913 31.6907 34.7523 31.6907H23.4993C23.1878 31.6907 22.9541 31.9451 22.9541 32.2845C22.9541 32.5815 23.1878 32.8359 23.4993 32.8359H34.1293C34.285 32.9632 34.363 33.1329 34.363 33.3025C34.363 33.6419 34.1293 33.8963 33.8178 33.8963L21.1242 33.7692C20.8128 33.7692 20.5402 34.066 20.5402 34.4477V34.6175C20.5402 34.9992 20.8128 35.296 21.1242 35.296H32.2214C32.2991 35.296 32.3771 35.2536 32.4161 35.2536C32.5719 35.296 32.6887 35.4233 32.6887 35.6353V35.6777C32.6887 35.805 32.6109 35.9323 32.5329 36.017H19.5278C19.4888 36.3563 19.372 36.738 19.2552 37.1623C19.1383 37.4591 19.0215 37.7985 18.8657 38.0954H23.7719L23.733 38.1378H35.1806C34.7523 40.5979 36.193 42.5492 38.6461 42.6339C41.4106 42.6763 44.4088 40.3858 45.3823 37.5016C45.7328 36.526 45.7717 35.5504 45.577 34.7445H48.2637C48.3026 34.6596 48.3026 34.5748 48.3026 34.49V34.49ZM42.7735 26.4735C42.8903 26.4735 42.9682 26.431 43.0461 26.431V22.741C42.9683 22.6985 42.8904 22.6985 42.7735 22.6985C41.8779 22.6985 41.1381 23.5044 41.1381 24.4799V24.6921C41.1381 25.6676 41.8779 26.4735 42.7735 26.4735ZM24.5506 30.7998C24.8232 30.7998 25.0568 30.5454 25.0568 30.2484C25.0568 29.9091 24.8231 29.6546 24.5506 29.6546H20.6179C20.3064 29.6546 20.0728 29.909 20.0728 30.2484C20.0728 30.5454 20.3065 30.7998 20.6179 30.7998H24.5506ZM28.8337 28.7639C28.9895 28.7639 29.1451 28.5942 29.1451 28.382C29.1451 28.2124 28.9895 28.0427 28.8337 28.0427H27.1593C27.0037 28.0427 26.8479 28.2123 26.8479 28.382C26.8479 28.5942 27.0037 28.7639 27.1593 28.7639H28.8337ZM5.35434 21.3836H7.02875C7.22346 21.3836 7.34017 21.2563 7.34017 21.0443C7.34017 20.8321 7.22334 20.7049 7.02875 20.7049H5.35434C5.19857 20.7049 5.04292 20.8321 5.04292 21.0443C5.04292 21.2563 5.19857 21.3836 5.35434 21.3836ZM8.81975 34.7869C8.81975 34.6173 8.66398 34.4476 8.50821 34.4476H6.83391C6.67814 34.4476 6.52237 34.6173 6.52237 34.7869C6.52237 34.999 6.67814 35.1687 6.83391 35.1687H8.50821C8.66398 35.1687 8.81975 34.999 8.81975 34.7869ZM21.2409 15.0211H24.9399C25.1736 15.0211 25.3294 14.8514 25.3294 14.597C25.3294 14.3424 25.1736 14.1728 24.9399 14.1728H21.2409C21.0072 14.1728 20.8126 14.3424 20.8126 14.597C20.8126 14.8514 21.0073 15.0211 21.2409 15.0211ZM18.3205 30.715C18.5542 30.715 18.7489 30.5453 18.7489 30.2907C18.7489 30.0363 18.5542 29.8666 18.3205 29.8666H14.7772C14.5436 29.8666 14.349 30.0363 14.349 30.2907C14.349 30.5453 14.5437 30.715 14.7772 30.715H18.3205ZM9.7153 33.1326C9.7153 32.8782 9.52059 32.7085 9.32588 32.7085H5.74364C5.50998 32.7085 5.35421 32.8782 5.35421 33.1326C5.35421 33.3872 5.50998 33.5992 5.74364 33.5992H9.32588C9.52059 33.5992 9.7153 33.3872 9.7153 33.1326ZM14.9718 37.1197C14.6214 38.1377 13.609 38.9011 12.6356 38.9011C11.7011 38.8587 11.1949 38.0104 11.5454 37.0349C11.8568 36.0169 12.9082 35.2535 13.8426 35.2535C14.8161 35.2959 15.3223 36.1442 14.9718 37.1197ZM15.2444 31.733C12.5188 31.6481 9.48165 33.9386 8.50821 36.8229C7.53476 39.7495 8.97552 42.1672 11.74 42.2521C14.5045 42.3369 17.5027 40.0464 18.4762 37.1197C19.4496 34.2355 18.0089 31.8178 15.2443 31.733H15.2444Z" fill="#515152"/>
<path d="M5.28773 27.3506L5.29658 34.9627L25.0125 49.7982L24.7634 55.8158L0 37.7547V27.2967L5.28773 27.3506Z" fill="#FFCE00"/>
</svg>
