<svg width="1897" height="324" viewBox="0 0 1897 324" fill="none" xmlns="http://www.w3.org/2000/svg">
<path d="M233.963 173.46L233.915 213.692L130.764 291.102L130.88 324L261.909 228.448V173.175L233.963 173.46Z" fill="#FFCE00"/>
<path d="M167.638 58.2832H234.298L234.081 128.47H262V29H167.638V58.2832Z" fill="#FFCE00"/>
<path d="M94.3617 58.2832H27.7028L27.919 128.47H0V29H94.3617V58.2832Z" fill="#FFCE00"/>
<path d="M32.621 155.916C32.621 154.571 31.5919 153.451 30.3569 153.451H11.2181C9.98319 153.451 8.9541 154.571 8.9541 155.916C8.9541 157.261 9.98319 158.382 11.2181 158.382H30.3569C31.5919 158.382 32.621 157.261 32.621 155.916V155.916ZM222.57 226.756C220.923 231.912 215.367 236.171 210.222 235.947C205.283 235.947 202.608 231.464 204.459 226.084C206.106 220.928 211.662 216.668 216.807 216.893C221.746 217.117 224.421 221.376 222.57 226.756ZM255.291 211.288C255.291 193.354 241.914 178.782 225.451 178.782C224.833 178.782 224.216 178.782 223.392 179.007L208.369 143.138C207.752 142.017 207.34 141.345 206.723 140.448C205.9 138.879 204.254 137.757 202.402 137.757H201.167C200.755 137.757 200.138 137.757 199.726 137.757H191.495L190.671 131.481C190.671 127.446 187.79 124.307 184.086 124.307H164.329C168.445 117.582 171.943 112.65 173.178 112.202C173.384 112.202 173.384 112.202 173.59 112.202C184.086 112.202 193.14 104.131 195.61 93.3705H202.196C201.579 88.2145 199.109 83.9554 195.61 80.8168C192.935 70.2804 184.086 62.4343 173.59 62.4343C161.036 62.4343 150.747 73.6433 150.747 87.3182C150.747 94.9402 153.834 101.666 158.773 106.149C129.344 106.822 112.88 120.497 108.147 125.429C106.295 126.55 105.06 129.015 105.06 131.482V131.93C105.06 135.966 107.941 139.328 111.646 139.328H118.437C111.44 148.967 106.706 158.383 103.826 164.436H95.594C95.7998 163.988 96.0056 163.539 96.2114 162.866L104.444 110.633C104.855 107.943 103.003 105.701 100.327 105.701L54.8465 105.477C52.1714 105.477 49.7016 107.494 49.2899 110.184L41.0577 162.418C40.8519 163.091 40.8519 163.763 41.0577 164.435H28.0929C26.4463 164.435 25.0062 165.78 25.0062 167.798V168.022C25.0062 169.816 26.447 171.385 28.0929 171.385H56.2872H186.967C165.976 153.003 144.985 157.262 144.985 157.262C144.985 157.262 149.512 148.967 155.069 139.552H164.535C163.712 140.448 163.3 141.794 163.3 142.915C163.3 145.829 165.358 148.295 168.033 148.295H191.906C192.111 149.191 192.317 150.088 192.729 150.985L202.401 173.851L198.697 177.886H165.564C164.535 177.886 163.506 178.782 163.506 180.128C163.506 181.249 164.535 182.369 165.564 182.369H196.022C196.639 182.594 197.257 183.266 197.257 184.163V184.387C197.257 184.835 197.051 185.284 196.639 185.732H140.457C138.811 185.732 137.576 187.077 137.576 188.871C137.576 190.44 138.811 191.785 140.457 191.785H185.732V192.009H185.938C186.967 192.009 187.79 193.13 187.79 194.251V194.475C187.79 195.596 186.966 196.493 185.938 196.493H184.291C184.086 196.493 183.88 196.493 183.674 196.493H124.199C122.553 196.493 121.318 197.838 121.318 199.631C121.318 201.201 122.553 202.546 124.199 202.546H180.381C181.204 203.218 181.616 204.115 181.616 205.012C181.616 206.806 180.381 208.15 178.735 208.15L111.646 207.478C110 207.478 108.559 209.047 108.559 211.065V211.962C108.559 213.979 110 215.548 111.646 215.548H170.298C170.709 215.548 171.121 215.324 171.327 215.324C172.15 215.548 172.767 216.221 172.767 217.341V217.565C172.767 218.238 172.356 218.911 171.944 219.359H103.209C103.003 221.152 102.385 223.169 101.768 225.412C101.151 226.981 100.533 228.774 99.7098 230.343H125.64L125.434 230.568H185.938C183.674 243.57 191.289 253.883 204.254 254.33C218.865 254.555 234.711 242.449 239.856 227.205C241.709 222.049 241.914 216.893 240.885 212.633H255.085C255.291 212.184 255.291 211.736 255.291 211.288V211.288ZM226.068 168.919C226.686 168.919 227.097 168.694 227.509 168.694V149.191C227.098 148.967 226.686 148.967 226.068 148.967C221.335 148.967 217.425 153.226 217.425 158.382V159.504C217.425 164.66 221.335 168.919 226.068 168.919ZM129.756 191.785C131.197 191.785 132.431 190.44 132.431 188.87C132.431 187.077 131.196 185.732 129.756 185.732H108.97C107.324 185.732 106.09 187.076 106.09 188.87C106.09 190.44 107.325 191.785 108.97 191.785H129.756ZM152.393 181.024C153.216 181.024 154.039 180.127 154.039 179.006C154.039 178.11 153.216 177.213 152.393 177.213H143.543C142.721 177.213 141.897 178.109 141.897 179.006C141.897 180.127 142.721 181.024 143.543 181.024H152.393ZM28.2987 142.017H37.1484C38.1775 142.017 38.7943 141.345 38.7943 140.224C38.7943 139.103 38.1769 138.43 37.1484 138.43H28.2987C27.4755 138.43 26.6528 139.103 26.6528 140.224C26.6528 141.345 27.4755 142.017 28.2987 142.017ZM46.6143 212.857C46.6143 211.961 45.791 211.064 44.9677 211.064H36.1187C35.2954 211.064 34.4721 211.961 34.4721 212.857C34.4721 213.978 35.2954 214.875 36.1187 214.875H44.9677C45.791 214.875 46.6143 213.978 46.6143 212.857ZM112.263 108.39H131.813C133.048 108.39 133.872 107.493 133.872 106.149C133.872 104.803 133.048 103.907 131.813 103.907H112.263C111.028 103.907 110 104.803 110 106.149C110 107.493 111.029 108.39 112.263 108.39ZM96.8282 191.336C98.0632 191.336 99.0923 190.439 99.0923 189.094C99.0923 187.749 98.0632 186.852 96.8282 186.852H78.1011C76.8662 186.852 75.8377 187.749 75.8377 189.094C75.8377 190.439 76.8668 191.336 78.1011 191.336H96.8282ZM51.3475 204.114C51.3475 202.769 50.3184 201.872 49.2893 201.872H30.3563C29.1214 201.872 28.2981 202.769 28.2981 204.114C28.2981 205.459 29.1214 206.58 30.3563 206.58H49.2893C50.3184 206.58 51.3475 205.459 51.3475 204.114ZM79.1295 225.187C77.2771 230.567 71.9264 234.602 66.7822 234.602C61.8431 234.378 59.1674 229.894 61.0198 224.738C62.6658 219.358 68.2229 215.323 73.1614 215.323C78.3063 215.547 80.9819 220.031 79.1295 225.187ZM80.5703 196.716C66.1647 196.268 50.1126 208.374 44.9677 223.618C39.8228 239.086 47.4375 251.864 62.0483 252.312C76.6597 252.761 92.506 240.655 97.6509 225.187C102.796 209.943 95.181 197.165 80.5697 196.716H80.5703Z" fill="#515152"/>
<path d="M27.9469 173.555L27.9937 213.786L132.197 292.195L130.88 324L0 228.543V173.269L27.9469 173.555Z" fill="#FFCE00"/>
<path d="M388.989 252C446.602 252 479.933 216.268 479.933 157.178C479.933 98.3636 446.602 62.9091 390.928 62.9091H327.774V252H388.989ZM356.304 227.071V87.8381H389.173C430.537 87.8381 451.865 112.582 451.865 157.178C451.865 201.957 430.537 227.071 387.419 227.071H356.304ZM513.195 252H540.801V110.182H513.195V252ZM527.137 88.2997C536.647 88.2997 544.587 80.9134 544.587 71.865C544.587 62.8168 536.647 55.3381 527.137 55.3381C517.534 55.3381 509.686 62.8168 509.686 71.865C509.686 80.9134 517.534 88.2997 527.137 88.2997ZM684.212 144.805C678.488 122.739 661.222 108.335 630.569 108.335C598.531 108.335 575.817 125.232 575.817 150.345C575.817 170.473 588.005 183.861 614.596 189.77L638.602 195.033C652.266 198.08 658.637 204.173 658.637 213.037C658.637 224.024 646.911 232.611 628.815 232.611C612.288 232.611 601.67 225.501 598.346 211.56L571.663 215.622C576.279 240.736 597.146 254.862 628.999 254.862C663.254 254.862 686.982 236.673 686.982 211.006C686.982 190.97 674.241 178.598 648.204 172.597L625.675 167.426C610.072 163.733 603.332 158.47 603.424 148.868C603.332 137.973 615.15 130.217 630.846 130.217C648.019 130.217 655.96 139.727 659.191 149.237L684.212 144.805ZM717.336 252H744.942V201.68L758.699 187.923L806.895 252H840.78L779.473 171.027L836.902 110.182H803.848L747.343 170.196H744.942V62.9091H717.336V252ZM1021.33 124.401C1014.87 83.9602 983.199 60.3239 943.22 60.3239C894.285 60.3239 858.184 96.9787 858.184 157.455C858.184 217.93 894.1 254.585 943.22 254.585C984.768 254.585 1015.14 228.548 1021.33 191.155L992.524 191.062C987.63 215.253 967.318 228.548 943.404 228.548C910.997 228.548 886.529 203.712 886.529 157.455C886.529 111.567 910.904 86.3608 943.497 86.3608C967.595 86.3608 987.815 99.9332 992.524 124.401H1021.33ZM1094.52 255.139C1117.98 255.139 1131.18 243.229 1136.44 232.611H1137.55V252H1164.51V157.824C1164.51 116.553 1132.01 108.335 1109.48 108.335C1083.81 108.335 1060.18 118.676 1050.95 144.528L1076.89 150.438C1080.95 140.374 1091.29 130.679 1109.85 130.679C1127.67 130.679 1136.81 140.004 1136.81 156.07V156.716C1136.81 166.78 1126.47 166.595 1100.99 169.55C1074.12 172.689 1046.61 179.706 1046.61 211.929C1046.61 239.812 1067.56 255.139 1094.52 255.139ZM1100.53 232.98C1084.92 232.98 1073.66 225.963 1073.66 212.298C1073.66 197.526 1086.77 192.263 1102.74 190.139C1111.7 188.939 1132.93 186.538 1136.9 182.568V200.849C1136.9 217.653 1123.52 232.98 1100.53 232.98ZM1201.28 252H1228.89V165.395C1228.89 146.837 1243.2 133.449 1262.77 133.449C1268.5 133.449 1274.96 134.464 1277.18 135.111V108.705C1274.41 108.335 1268.96 108.058 1265.45 108.058C1248.83 108.058 1234.61 117.476 1229.44 132.71H1227.96V110.182H1201.28V252ZM1301.07 252H1328.67V110.182H1301.07V252ZM1315.01 88.2997C1324.52 88.2997 1332.46 80.9134 1332.46 71.865C1332.46 62.8168 1324.52 55.3381 1315.01 55.3381C1305.41 55.3381 1297.56 62.8168 1297.56 71.865C1297.56 80.9134 1305.41 88.2997 1315.01 88.2997ZM1365.81 252H1393.42V164.564C1393.42 145.452 1406.81 132.156 1422.5 132.156C1437.83 132.156 1448.45 142.312 1448.45 157.732V252H1475.96V161.609C1475.96 144.528 1486.39 132.156 1504.4 132.156C1518.99 132.156 1530.99 140.281 1530.99 159.486V252H1558.6V156.901C1558.6 124.493 1540.5 108.335 1514.83 108.335C1494.43 108.335 1479.1 118.122 1472.27 133.264H1470.79C1464.6 117.753 1451.59 108.335 1432.66 108.335C1413.92 108.335 1399.97 117.661 1394.06 133.264H1392.31V110.182H1365.81V252ZM1597.81 252H1624.77V229.933H1627.08C1632.07 238.982 1642.22 254.77 1668.08 254.77C1702.42 254.77 1727.35 227.256 1727.35 181.368C1727.35 135.388 1702.05 108.335 1667.8 108.335C1641.49 108.335 1631.98 124.401 1627.08 133.172H1625.42V62.9091H1597.81V252ZM1624.87 181.091C1624.87 151.453 1637.79 131.787 1661.89 131.787C1686.91 131.787 1699.47 152.93 1699.47 181.091C1699.47 209.528 1686.54 231.226 1661.89 231.226C1638.16 231.226 1624.87 210.913 1624.87 181.091ZM1818.09 254.862C1858.07 254.862 1884.2 225.594 1884.2 181.737C1884.2 137.604 1858.07 108.335 1818.09 108.335C1778.11 108.335 1751.98 137.604 1751.98 181.737C1751.98 225.594 1778.11 254.862 1818.09 254.862ZM1818.18 231.688C1792.05 231.688 1779.86 208.882 1779.86 181.645C1779.86 154.5 1792.05 131.418 1818.18 131.418C1844.13 131.418 1856.31 154.5 1856.31 181.645C1856.31 208.882 1844.13 231.688 1818.18 231.688Z" fill="#515152"/>
</svg>
